<svg width="245" height="245" viewBox="0 0 245 245" fill="none" xmlns="http://www.w3.org/2000/svg">
<g id="Group">
<path id="Vector" d="M122.034 29.2899C130.379 29.2899 138.463 30.3929 146.159 32.4575L153.248 7.82811C143.404 5.18078 133.052 3.76553 122.367 3.76553C112.868 3.76553 103.631 4.88524 94.7819 6.99146L100.917 31.7041C107.702 30.1265 114.77 29.2899 122.038 29.2899H122.034ZM122.034 98.9865C121.459 98.9865 120.993 98.5203 120.993 97.9458C120.993 97.3714 121.459 96.9052 122.034 96.9052C126.109 96.9052 129.959 97.8751 133.372 99.5942C136.91 101.376 139.97 103.969 142.313 107.124C142.655 107.586 142.559 108.236 142.097 108.577C141.635 108.918 140.985 108.822 140.644 108.36C138.496 105.463 135.682 103.087 132.436 101.446C129.31 99.8731 125.78 98.9865 122.034 98.9865ZM22.6169 128.961C23.5327 128.956 24.2778 129.697 24.2819 130.613C24.2861 131.529 23.5452 132.274 22.6294 132.278L14.5084 132.34C13.9173 132.494 13.3429 132.536 12.8018 132.486C12.0359 132.665 11.5905 133.002 11.3949 133.398C11.2533 133.681 11.2284 134.022 11.295 134.372C11.3699 134.767 11.5572 135.158 11.8361 135.483C12.294 136.024 13.0099 136.341 13.8008 136.074C14.6707 135.779 15.6156 136.245 15.907 137.115C16.2025 137.985 15.7363 138.93 14.8664 139.221C12.5937 139.991 10.5707 139.129 9.30115 137.631C8.66012 136.873 8.21058 135.941 8.03159 134.971C7.84011 133.951 7.94418 132.89 8.4187 131.928C8.64764 131.458 8.96398 131.021 9.36775 130.638L9.35942 130.626C8.7184 129.868 8.26885 128.936 8.08986 127.966C7.89839 126.946 8.00245 125.884 8.47697 124.923C8.80165 124.265 9.2845 123.67 9.95465 123.191C9.48429 122.579 9.14297 121.884 8.98896 121.181C8.785 120.248 8.88906 119.295 9.40937 118.438C10.1794 117.16 11.8403 116.215 14.7373 116.194L22.9125 116.132C23.4286 115.919 23.7783 115.674 23.9781 115.412C24.1029 115.245 24.1487 115.049 24.1154 114.837C24.0613 114.492 23.849 114.092 23.4827 113.668C22.6003 112.644 20.9936 111.632 18.7292 110.862C17.8592 110.566 17.393 109.626 17.6885 108.756C17.9841 107.886 18.9248 107.42 19.7948 107.715C22.6461 108.685 24.7481 110.055 25.9927 111.495C26.7836 112.41 27.2623 113.38 27.4079 114.342C27.5744 115.437 27.3247 116.481 26.6337 117.401C26.026 118.213 25.0811 118.887 23.7866 119.349C23.6034 119.416 23.4161 119.445 23.233 119.445L14.754 119.508C13.218 119.52 12.4813 119.791 12.2607 120.153C12.219 120.223 12.2149 120.34 12.244 120.477C12.3023 120.74 12.4563 121.018 12.6769 121.272C12.9683 121.614 13.3512 121.893 13.7508 122.034C13.8965 122.026 14.0505 122.022 14.2004 122.022L14.9288 122.017C15.0579 122.001 15.1869 122.001 15.3118 122.013L22.6835 121.959C23.5993 121.955 24.3444 122.696 24.3485 123.612C24.3527 124.527 23.6118 125.273 22.696 125.277L15.3076 125.331C14.6999 125.468 14.088 125.477 13.5011 125.377C12.3398 125.497 11.7071 125.897 11.4615 126.392C11.3199 126.675 11.295 127.017 11.3616 127.366C11.4365 127.762 11.6238 128.153 11.9027 128.478C12.1566 128.777 12.4896 129.01 12.8726 129.11C13.2305 129.065 13.6093 129.035 14.0089 129.027C14.2628 128.965 14.5209 128.965 14.7623 129.019L22.6252 128.961H22.6169ZM22.388 163.713C21.9801 162.889 22.3214 161.894 23.1414 161.49C23.9656 161.082 24.9604 161.424 25.3642 162.244L28.4028 168.358C28.8107 169.183 28.4694 170.177 27.6494 170.581C27.5994 170.606 27.5453 170.631 27.4912 170.648C26.6171 171.018 25.8886 171.584 25.3891 172.279C24.9229 172.929 24.6565 173.699 24.6565 174.54C24.6565 175.584 25.0811 176.534 25.7638 177.216C26.4506 177.903 27.3955 178.323 28.4402 178.323C28.9106 178.323 29.356 178.24 29.7722 178.082C30.2343 177.907 30.6755 177.645 31.1001 177.299C31.8118 176.721 32.8566 176.829 33.4352 177.541C33.4893 177.612 33.5393 177.682 33.5851 177.757L36.9775 183.614C37.4354 184.409 37.1648 185.425 36.3739 185.882C35.5789 186.34 34.5632 186.07 34.1054 185.279L31.5787 180.917C31.3706 181.017 31.1583 181.108 30.9461 181.191C30.1427 181.495 29.306 181.653 28.4402 181.653C26.4755 181.653 24.6982 180.858 23.4078 179.568C22.1216 178.282 21.3224 176.5 21.3224 174.536C21.3224 172.987 21.8219 171.547 22.6919 170.34C23.233 169.59 23.9156 168.933 24.7065 168.396L22.3755 163.709L22.388 163.713ZM28.5318 160.579C28.0948 159.775 28.3903 158.768 29.1936 158.327C29.997 157.89 31.0043 158.185 31.4455 158.989L43.1213 180.463C43.5584 181.266 43.2628 182.274 42.4595 182.715C41.6561 183.152 40.6488 182.856 40.2076 182.053L28.5318 160.579ZM71.2097 215.003C71.2097 215.02 71.2139 215.036 71.2139 215.053C71.2222 215.182 71.2181 215.311 71.2014 215.436C71.2139 215.465 71.2264 215.49 71.243 215.515C71.318 215.623 71.4428 215.732 71.601 215.831C71.9881 216.081 72.4959 216.252 73.0371 216.339C73.649 213.921 75.4596 210.991 77.6408 209.109C78.3359 208.51 79.3807 208.585 79.9843 209.28C80.5836 209.975 80.5087 211.02 79.8136 211.623C78.0695 213.13 76.6376 215.449 76.2255 217.293C76.1673 217.546 76.134 217.78 76.1256 217.984C76.1298 218.046 76.1256 218.104 76.1215 218.167C76.1256 218.296 76.1423 218.416 76.1714 218.516C76.1922 218.583 76.2172 218.625 76.2463 218.637C76.6335 218.787 77.3661 218.699 78.5524 218.275C79.4182 217.967 80.3714 218.416 80.6794 219.282C80.9874 220.148 80.5379 221.101 79.6721 221.409C77.6824 222.121 76.1673 222.158 75.0642 221.734C74.0444 221.343 73.395 220.627 73.0579 219.69C71.8841 219.569 70.7144 219.216 69.8111 218.633C69.2992 218.3 68.8579 217.892 68.5166 217.405C68.3917 217.222 68.2794 217.03 68.1878 216.831C67.0015 216.714 65.8193 216.36 64.9119 215.769C64.3999 215.436 63.9587 215.028 63.6174 214.541C63.2469 214.004 63.0138 213.392 62.9597 212.71C62.8889 211.794 63.1387 210.787 63.8338 209.713L67.9713 203.302C68.4667 202.528 69.4948 202.308 70.269 202.803C71.0432 203.298 71.2639 204.326 70.7685 205.101L66.631 211.511C66.3646 211.927 66.2606 212.231 66.2772 212.452C66.2814 212.526 66.3105 212.597 66.3521 212.656C66.427 212.764 66.5519 212.872 66.7101 212.972C67.1222 213.238 67.6633 213.413 68.2461 213.492C68.3751 213.192 68.5416 212.889 68.7414 212.576L72.8789 206.166C73.3742 205.392 74.4024 205.171 75.1766 205.667C75.9508 206.162 76.1714 207.19 75.6761 207.964L71.5386 214.375C71.3762 214.624 71.2763 214.837 71.2222 215.011L71.2097 215.003ZM117.551 221.472C117.53 222.387 116.768 223.112 115.852 223.091C114.937 223.07 114.212 222.308 114.233 221.393C114.287 219.145 116.214 217.542 118.425 216.897C119.341 216.631 120.323 216.522 121.23 216.602C122.263 216.693 123.22 217.022 123.953 217.63C125.139 218.612 125.692 220.136 125.031 222.271C124.702 223.328 124.277 224.269 123.857 225.197C122.995 227.104 122.154 228.964 122.766 230.97C122.787 231.037 122.8 231.099 122.812 231.166H122.816C122.945 231.882 123.503 232.431 124.206 232.74C124.639 232.931 125.118 233.027 125.584 233.023C126.021 233.018 126.446 232.923 126.8 232.723C127.357 232.415 127.782 231.803 127.894 230.829C127.903 230.762 127.911 230.696 127.928 230.633C128.186 229.11 127.761 227.541 127.341 225.971C127.328 225.926 127.312 225.867 127.149 225.239C126.4 222.358 127.079 220.24 128.298 219.024C128.818 218.504 129.439 218.146 130.096 217.959C130.758 217.771 131.458 217.75 132.144 217.909C133.701 218.267 135.141 219.528 135.724 221.721C135.957 222.608 135.429 223.515 134.542 223.753C133.655 223.986 132.748 223.457 132.511 222.571C132.286 221.713 131.845 221.251 131.403 221.151C131.27 221.122 131.137 221.126 131.008 221.159C130.875 221.197 130.75 221.272 130.642 221.38C130.171 221.85 129.959 222.845 130.363 224.41C130.4 224.556 130.438 224.685 130.554 225.118C131.07 227.041 131.591 228.968 131.195 231.224C130.946 233.401 129.851 234.833 128.415 235.632C127.557 236.107 126.592 236.336 125.622 236.348C124.681 236.361 123.732 236.165 122.879 235.791C121.234 235.07 119.902 233.689 119.544 231.799C118.637 228.664 119.715 226.279 120.818 223.84C121.205 222.987 121.592 222.125 121.85 221.301C122.042 220.685 122 220.339 121.826 220.198C121.634 220.04 121.318 219.944 120.939 219.911C120.439 219.865 119.882 219.932 119.345 220.09C118.387 220.369 117.563 220.885 117.546 221.476L117.551 221.472ZM170.131 219.37C169.253 219.107 168.749 218.183 169.011 217.301C169.274 216.423 170.198 215.919 171.08 216.181C171.172 216.21 171.263 216.223 171.347 216.214C171.426 216.21 171.505 216.194 171.571 216.165C171.58 216.16 171.592 216.156 171.613 216.144C171.7 216.098 171.754 216.035 171.779 215.969C171.8 215.911 171.796 215.84 171.767 215.769L171.75 215.736C171.65 215.548 171.509 215.386 171.342 215.249C171.155 215.099 170.943 214.982 170.718 214.912C170.135 214.724 169.553 214.824 169.086 215.107C168.862 215.245 168.658 215.424 168.491 215.636C168.325 215.848 168.191 216.09 168.108 216.352C167.917 216.955 167.979 217.684 168.424 218.421C168.749 218.953 169.153 219.357 169.619 219.648C170.747 220.356 172.308 220.448 174.006 220.131C175.896 219.778 177.907 218.928 179.717 217.825C181.911 216.493 183.78 214.824 184.766 213.255C185.253 212.481 186.282 212.248 187.056 212.735C187.83 213.222 188.063 214.25 187.576 215.024C186.327 217.014 184.055 219.07 181.436 220.664C179.297 221.963 176.903 222.97 174.618 223.399C172.142 223.861 169.757 223.657 167.85 222.462C166.963 221.905 166.198 221.143 165.59 220.144C164.595 218.508 164.483 216.814 164.949 215.357C165.157 214.708 165.477 214.108 165.89 213.584C166.302 213.063 166.801 212.618 167.371 212.273C168.616 211.515 170.16 211.253 171.721 211.748C172.35 211.948 172.932 212.26 173.44 212.672C173.94 213.076 174.364 213.584 174.681 214.175C174.727 214.258 174.772 214.354 174.814 214.454C175.193 215.324 175.205 216.256 174.905 217.089C174.61 217.909 174.015 218.625 173.178 219.074C173.091 219.12 172.995 219.166 172.891 219.211C172.445 219.403 171.979 219.511 171.521 219.536C171.047 219.561 170.577 219.503 170.135 219.37H170.131ZM180.924 205.067C181.803 205.33 182.306 206.254 182.044 207.136C181.782 208.014 180.858 208.518 179.975 208.256C179.884 208.227 179.792 208.214 179.709 208.222C179.63 208.227 179.551 208.243 179.484 208.272C179.476 208.277 179.463 208.281 179.443 208.293C179.355 208.339 179.301 208.401 179.276 208.468C179.255 208.526 179.259 208.597 179.289 208.668L179.305 208.701C179.405 208.888 179.547 209.051 179.713 209.188C179.9 209.338 180.113 209.455 180.338 209.525C180.92 209.713 181.503 209.613 181.969 209.33C182.194 209.192 182.398 209.013 182.564 208.801C182.731 208.589 182.864 208.347 182.947 208.085C183.139 207.482 183.076 206.753 182.631 206.016C182.306 205.484 181.903 205.08 181.436 204.788C180.308 204.081 178.747 203.989 177.049 204.306C175.159 204.659 173.149 205.509 171.338 206.612C169.145 207.944 167.276 209.613 166.289 211.182C165.802 211.956 164.774 212.189 164 211.702C163.226 211.215 162.992 210.187 163.479 209.413C164.728 207.423 167.001 205.367 169.619 203.773C171.759 202.474 174.152 201.467 176.437 201.038C178.914 200.576 181.299 200.78 183.205 201.975C184.092 202.532 184.858 203.294 185.466 204.293C186.461 205.929 186.573 207.623 186.107 209.08C185.899 209.729 185.578 210.329 185.166 210.853C184.754 211.373 184.254 211.819 183.684 212.164C182.44 212.922 180.895 213.184 179.334 212.689C178.706 212.489 178.123 212.177 177.615 211.765C177.116 211.361 176.691 210.853 176.375 210.262C176.329 210.179 176.283 210.083 176.242 209.983C175.863 209.113 175.85 208.181 176.15 207.348C176.446 206.528 177.041 205.812 177.878 205.363C177.965 205.317 178.061 205.271 178.165 205.225C178.61 205.034 179.076 204.926 179.534 204.901C180.009 204.876 180.479 204.934 180.92 205.067H180.924ZM207.968 163.8C207.76 162.906 208.318 162.011 209.209 161.802C210.103 161.594 210.998 162.152 211.206 163.043C211.365 163.713 211.477 164.375 211.548 165.024C211.681 166.231 211.656 167.355 211.506 168.4L219.594 173.233C220.797 172.35 222.145 171.688 223.532 171.272C224.014 171.126 224.506 171.01 225.001 170.927C225.904 170.773 226.766 171.38 226.92 172.288C227.074 173.191 226.466 174.053 225.559 174.207C225.201 174.269 224.839 174.352 224.481 174.461C222.587 175.027 220.809 176.196 219.619 177.832C218.453 179.431 217.854 181.504 218.27 183.922C218.337 184.317 218.433 184.725 218.557 185.142C218.82 186.02 218.32 186.948 217.438 187.21C216.559 187.473 215.631 186.973 215.369 186.091C215.207 185.545 215.082 185.008 214.99 184.48C214.811 183.439 214.77 182.44 214.845 181.491L206.332 176.404C205.096 177.208 203.764 177.761 202.486 178.065C202.057 178.165 201.616 178.24 201.171 178.29C200.259 178.386 199.439 177.724 199.343 176.812C199.248 175.901 199.91 175.081 200.821 174.985C201.096 174.956 201.396 174.902 201.72 174.823H201.724C203.402 174.427 205.188 173.449 206.482 171.884C207.76 170.331 208.551 168.171 208.243 165.374C208.189 164.883 208.097 164.358 207.964 163.796L207.968 163.8ZM210.524 171.68C210.116 172.533 209.616 173.303 209.046 173.994C209.017 174.032 208.988 174.065 208.955 174.103L215.673 178.115C216.01 177.316 216.439 176.567 216.942 175.88C217.005 175.797 217.067 175.709 217.134 175.626L210.528 171.676L210.524 171.68ZM232.573 125.06C232.756 125.131 232.939 125.21 233.118 125.298C234.113 125.785 235.008 126.513 235.653 127.495C236.298 128.482 236.681 129.706 236.643 131.171C236.61 132.432 236.256 133.872 235.465 135.487C235.062 136.311 234.071 136.649 233.247 136.249C232.423 135.845 232.086 134.855 232.485 134.03C233.051 132.873 233.305 131.903 233.326 131.092C233.347 130.359 233.168 129.772 232.868 129.314C232.568 128.852 232.14 128.507 231.661 128.274C231.257 128.078 230.824 127.953 230.404 127.907C228.972 129.115 227.124 129.843 225.105 129.843C222.836 129.843 220.78 128.923 219.294 127.437C217.808 125.951 216.888 123.895 216.888 121.626C216.888 119.358 217.808 117.301 219.294 115.815C220.78 114.329 222.836 113.409 225.105 113.409C227.374 113.409 229.43 114.329 230.916 115.815C231.024 115.924 231.128 116.036 231.232 116.148C231.69 116.111 232.16 115.986 232.593 115.77C233.072 115.536 233.501 115.191 233.8 114.729C234.1 114.271 234.275 113.684 234.258 112.952C234.238 112.144 233.984 111.17 233.417 110.013C233.014 109.189 233.355 108.198 234.179 107.794C235.003 107.391 235.994 107.732 236.398 108.556C237.189 110.167 237.543 111.607 237.576 112.873C237.613 114.338 237.23 115.561 236.585 116.548C235.944 117.53 235.045 118.259 234.05 118.746C233.696 118.921 233.326 119.062 232.951 119.175C233.193 119.949 233.322 120.769 233.322 121.622C233.322 122.846 233.055 124.007 232.573 125.052V125.06ZM228.56 118.171C227.677 117.289 226.454 116.739 225.105 116.739C223.756 116.739 222.533 117.285 221.65 118.171C220.768 119.054 220.218 120.278 220.218 121.626C220.218 122.975 220.764 124.199 221.65 125.081C222.533 125.964 223.756 126.513 225.105 126.513C226.454 126.513 227.677 125.968 228.56 125.081C229.442 124.199 229.992 122.975 229.992 121.626C229.992 120.278 229.446 119.054 228.56 118.171ZM206.611 77.2167C205.874 77.7661 204.834 77.6163 204.284 76.8795C203.893 76.3551 203.856 75.6724 204.139 75.1271C204.205 74.6984 204.434 74.2946 204.817 74.0241C205.416 73.5995 205.953 73.229 206.503 72.8502C209.92 70.5068 213.725 67.9011 214.707 63.8634C214.824 62.34 214.195 61.2286 213.346 60.6875C213.001 60.4669 212.634 60.3461 212.28 60.3295C211.956 60.317 211.639 60.3919 211.369 60.5626C210.607 61.0496 210.07 62.2817 210.191 64.492C210.237 65.4077 209.533 66.1903 208.617 66.2361C207.702 66.2819 206.919 65.5784 206.873 64.6626C206.678 61.0663 207.901 58.8393 209.587 57.7654C210.457 57.2118 211.435 56.9704 212.409 57.012C213.359 57.0495 214.299 57.3492 215.128 57.8778C216.938 59.0266 218.279 61.2661 218.012 64.2173C218.008 64.313 217.995 64.4129 217.971 64.5086C217.7 65.6783 217.275 66.7397 216.743 67.7054C217.683 67.5556 218.666 67.5098 219.685 67.5972C219.794 67.6055 219.894 67.6263 219.993 67.6513C222.874 68.3048 224.593 70.2653 225.13 72.3383C225.38 73.2915 225.376 74.278 225.126 75.1812C224.864 76.1303 224.335 76.9919 223.544 77.6454C222.004 78.9233 219.511 79.4062 216.143 78.1158C215.286 77.7869 214.853 76.8296 215.182 75.9679C215.51 75.1105 216.468 74.6776 217.33 75.0064C219.394 75.7973 220.734 75.6599 221.43 75.0855C221.679 74.8774 221.85 74.6027 221.933 74.2988C222.029 73.9533 222.025 73.562 221.925 73.1708C221.671 72.1967 220.805 71.2602 219.323 70.9064C215.165 70.6067 211.519 73.4288 208.247 75.9638C207.614 76.4508 206.994 76.9336 206.619 77.2125L206.611 77.2167ZM169.286 29.856C168.454 29.473 168.087 28.4865 168.474 27.6499C168.857 26.8174 169.844 26.4511 170.681 26.8382L175.035 28.8611C175.084 28.3908 175.093 27.9079 175.064 27.4043C174.989 26.1971 174.672 24.886 174.073 23.4957C173.711 22.6507 174.102 21.6725 174.943 21.3104C175.788 20.9483 176.766 21.3395 177.128 22.1804C177.878 23.9244 178.281 25.6102 178.381 27.2086C178.448 28.295 178.373 29.3357 178.169 30.318L180.1 31.2171C181.47 29.448 183.397 28.0952 185.828 27.3793C187.351 26.9297 189.07 26.7299 190.969 26.8423C191.884 26.8923 192.588 27.6748 192.538 28.5906C192.488 29.5063 191.705 30.2098 190.79 30.1598C189.279 30.0724 187.938 30.2223 186.769 30.5678C185.324 30.9965 184.138 31.7249 183.23 32.674L185.836 33.8853C186.669 34.2682 187.035 35.2547 186.648 36.0914C186.265 36.9239 185.278 37.2902 184.442 36.9031L181.52 35.5461C181.27 36.287 181.12 37.082 181.074 37.9104C181.004 39.1633 181.158 40.4911 181.561 41.8481C181.819 42.7264 181.316 43.6504 180.437 43.9085C179.559 44.1666 178.635 43.6629 178.377 42.7846C177.869 41.0572 177.669 39.3506 177.761 37.7272C177.832 36.466 178.081 35.263 178.498 34.1392L177.008 33.444C176.903 33.6313 176.791 33.8145 176.675 33.9935C175.447 35.8916 173.636 37.3776 171.43 38.3308C169.94 38.9718 168.262 39.3714 166.456 39.4796C165.54 39.5337 164.753 38.8344 164.699 37.9187C164.645 37.003 165.344 36.2162 166.26 36.1621C167.663 36.0747 168.961 35.7667 170.114 35.2714C171.721 34.5804 173.028 33.519 173.89 32.1828C173.923 32.1328 173.952 32.0871 173.981 32.0371L169.294 29.856H169.286ZM25.8262 64.5752C24.9188 64.6959 24.0821 64.0591 23.9614 63.1517C23.8407 62.2442 24.4776 61.4076 25.385 61.2869C26.5505 61.1287 27.9657 60.5002 29.0063 59.0266C29.5599 58.2441 30.0137 57.2201 30.2842 55.9048L30.5589 53.3948C30.5798 53.17 30.6547 52.9453 30.7671 52.7496C30.7796 52.7288 30.792 52.708 30.8045 52.6872C30.9336 52.4832 31.1209 52.2917 31.3248 52.1669C31.3456 52.1544 31.3665 52.1419 31.3873 52.1294C31.8909 51.8422 32.5236 51.8422 33.0273 52.1294C33.0481 52.1419 33.0689 52.1544 33.0897 52.1669C33.2937 52.2959 33.4852 52.4832 33.61 52.6872C33.6225 52.708 33.635 52.7288 33.6475 52.7496C33.7849 52.9869 33.8515 53.245 33.864 53.5155C33.9472 56.0463 34.5591 57.8154 35.4124 59.0225C36.453 60.5002 37.8683 61.1245 39.0338 61.2827C39.9412 61.4034 40.5822 62.2401 40.4573 63.1475C40.3366 64.0549 39.5 64.6959 38.5925 64.5711C36.7985 64.3255 34.659 63.4222 33.019 61.366L32.0449 70.2112L34.2178 68.8251C34.992 68.334 36.016 68.5587 36.5071 69.3329C36.9983 70.1072 36.7735 71.1311 35.9993 71.6223L31.5787 74.4403L30.4382 84.8007C30.3425 85.7123 29.5225 86.3742 28.6109 86.2784C27.6993 86.1827 27.0375 85.3627 27.1332 84.4511L27.9824 76.738L25.8095 78.1241C25.0353 78.6153 24.0114 78.3905 23.5202 77.6163C23.029 76.8421 23.2538 75.8181 24.028 75.3269L28.4486 72.5089L29.4767 63.16C28.2613 63.9925 26.9667 64.4212 25.8137 64.5794L25.8262 64.5752ZM61.6235 29.2607C61.9857 30.1057 61.5944 31.0839 60.7536 31.446C59.9086 31.8082 58.9304 31.4169 58.5683 30.5761C58.3726 30.1224 58.2353 29.6437 58.1604 29.1525C57.9939 28.0744 58.1354 26.9339 58.5891 25.9307C59.0719 24.8735 59.8961 23.9785 61.0824 23.4666C61.4779 23.2959 61.9108 23.171 62.3811 23.1003C63.0221 23.0045 63.634 23.2876 63.9837 23.7829C64.171 23.2168 64.3999 22.7007 64.6663 22.2428C65.12 21.4644 65.6903 20.8359 66.348 20.4279C67.1472 19.9284 68.0421 19.7495 68.9953 19.9826C70.3106 20.3031 71.626 21.4561 72.7207 23.7746C72.9039 24.1617 73.0829 24.5863 73.266 25.0233C73.445 24.6903 73.6448 24.3781 73.8696 24.0868C74.777 22.9088 76.0132 22.1429 77.7365 22.0014C79.0102 21.6892 80.4546 22.1845 81.5535 23.1877C82.103 23.6913 82.5858 24.3324 82.9146 25.0691C83.2518 25.8225 83.4308 26.6675 83.3683 27.5541C83.2435 29.2607 82.2528 31.0631 79.8011 32.5158C79.7012 32.5741 79.5971 32.624 79.4848 32.6615C77.9613 33.1776 76.7209 33.2817 75.6927 33.0902C76.059 36.6117 76.2297 40.5452 73.0163 42.5724C72.242 43.0594 71.2139 42.8263 70.7269 42.052C70.2399 41.2778 70.473 40.2497 71.2472 39.7627C72.9663 38.6804 72.6042 35.3588 72.2962 32.5741C72.2087 31.7915 72.1296 31.0423 72.088 30.3388C71.4262 29.2732 70.9142 28.0245 70.4105 26.8007C70.1899 26.2596 69.9693 25.7268 69.7196 25.2023C69.1077 23.9036 68.604 23.3125 68.2211 23.221C68.2003 23.2168 68.1628 23.2335 68.1087 23.2626C67.9131 23.3833 67.7174 23.6164 67.5343 23.9328C66.8017 25.1815 66.502 27.2253 67.0639 29.0443L69.0244 32.3992C69.4865 33.1943 69.2201 34.2141 68.425 34.6761C67.63 35.1382 66.6102 34.8718 66.1482 34.0767L61.9274 26.8548C61.7942 26.9922 61.686 27.1504 61.6069 27.321C61.4279 27.7165 61.378 28.1951 61.4487 28.6697C61.482 28.8778 61.5403 29.0817 61.6194 29.2732L61.6235 29.2607ZM75.4138 28.9652C76.109 29.6229 77.0081 29.9267 78.2568 29.5563C79.5014 28.782 80.0009 27.9953 80.0508 27.3127C80.0758 26.9963 80.0092 26.6925 79.8844 26.4178C79.7512 26.1222 79.5514 25.8558 79.3183 25.6435C78.9977 25.348 78.6897 25.169 78.5482 25.219C78.4025 25.2689 78.2527 25.2939 78.107 25.3022C77.3744 25.3397 76.8624 25.6435 76.5003 26.1139C76.0174 26.7383 75.6969 27.6748 75.4513 28.7529C75.4347 28.8195 75.4263 28.8903 75.4138 28.9652ZM109.48 16.5735C108.564 16.6276 107.777 15.9283 107.723 15.0126C107.669 14.0968 108.368 13.3101 109.284 13.256C111.573 13.1186 112.198 11.8699 112.747 10.7585C113.542 9.16011 114.262 7.71989 116.706 7.47847C116.835 7.46598 116.96 7.47014 117.084 7.48263C119.486 7.7407 120.198 9.1726 120.989 10.7585C121.534 11.8491 122.146 13.0812 124.356 13.2477C126.567 13.0812 127.178 11.8491 127.724 10.7585C128.519 9.16011 129.239 7.71989 131.682 7.47847C131.811 7.46598 131.936 7.47014 132.061 7.48263C134.463 7.7407 135.175 9.1726 135.965 10.7585C136.519 11.8657 137.139 13.1145 139.429 13.256C140.344 13.3101 141.044 14.0968 140.99 15.0126C140.935 15.9283 140.149 16.6276 139.233 16.5735C135.016 16.3196 133.938 14.1593 132.985 12.2445C132.652 11.5785 132.348 10.9708 131.84 10.8168C131.333 10.9708 131.029 11.5743 130.696 12.2445C129.743 14.1551 128.669 16.3071 124.485 16.5735C124.41 16.5777 124.331 16.5818 124.252 16.5777C120.036 16.3237 118.958 14.1634 118.004 12.2487C117.671 11.5827 117.368 10.975 116.86 10.8209C116.352 10.975 116.048 11.5785 115.715 12.2487C114.762 14.1634 113.684 16.3237 109.467 16.5777L109.48 16.5735ZM109.205 26.4302C108.289 26.4844 107.502 25.7851 107.448 24.8693C107.394 23.9536 108.093 23.1669 109.009 23.1127C111.299 22.9754 111.923 21.7266 112.472 20.6153C113.267 19.0169 113.988 17.5766 116.431 17.3352C116.56 17.3227 116.685 17.3269 116.81 17.3394C119.211 17.5975 119.923 19.0294 120.714 20.6153C121.259 21.7058 121.871 22.9379 124.082 23.1044C126.292 22.9379 126.904 21.7058 127.449 20.6153C128.244 19.0169 128.964 17.5766 131.408 17.3352C131.537 17.3227 131.661 17.3269 131.786 17.3394C134.188 17.5975 134.9 19.0294 135.691 20.6153C136.244 21.7225 136.865 22.9712 139.154 23.1127C140.07 23.1669 140.769 23.9536 140.715 24.8693C140.661 25.7851 139.874 26.4844 138.958 26.4302C134.742 26.1763 133.664 24.016 132.71 22.1013C132.377 21.4353 132.074 20.8275 131.566 20.6735C131.058 20.8275 130.754 21.4311 130.421 22.1013C129.468 24.0118 128.394 26.1638 124.211 26.4302C124.136 26.4344 124.057 26.4386 123.978 26.4344C119.761 26.1805 118.683 24.0202 117.73 22.1054C117.397 21.4394 117.093 20.8317 116.585 20.6777C116.077 20.8317 115.773 21.4353 115.44 22.1054C114.487 24.0202 113.409 26.1805 109.192 26.4344L109.205 26.4302ZM208.746 41.1072L190.14 59.0391C200.263 69.9573 207.793 83.3147 211.748 98.129L236.997 91.8603C231.877 72.5714 222.021 55.2138 208.742 41.1072H208.746ZM187.842 56.6457L206.436 38.7221C206.366 38.6513 206.295 38.5805 206.228 38.5098C192.529 24.811 175.492 14.4465 156.445 8.74386L149.356 33.3858C164.012 37.8896 177.12 45.9231 187.693 56.4959C187.743 56.5458 187.793 56.5958 187.842 56.6457ZM237.809 95.0821L212.551 101.355C214.083 108.04 214.89 115.004 214.89 122.151C214.89 130.309 213.837 138.222 211.86 145.76L236.972 152.986C239.574 143.221 240.964 132.956 240.964 122.371C240.964 112.981 239.869 103.844 237.809 95.0821ZM236.073 156.191L210.961 148.965C206.59 163.484 198.757 176.509 188.425 187.073C188.45 187.098 188.475 187.123 188.5 187.148L206.569 205.896C220.164 192.193 230.433 175.189 236.077 156.196L236.073 156.191ZM204.197 208.218L186.103 189.45C186.086 189.433 186.073 189.421 186.061 189.404C175.363 199.594 162.235 207.257 147.633 211.432L153.914 236.727C173.045 231.462 190.24 221.526 204.193 208.218H204.197ZM150.701 237.564L144.424 212.285C137.252 214.062 129.755 215.003 122.034 215.003C114.429 215.003 107.036 214.087 99.96 212.36L92.7964 237.252C102.249 239.678 112.156 240.969 122.362 240.969C132.128 240.969 141.618 239.787 150.697 237.564H150.701ZM89.5871 236.382L96.7424 211.519C81.9781 207.348 68.7039 199.619 57.9106 189.308L39.4125 207.136C53.2653 220.697 70.4355 230.883 89.5829 236.382H89.5871ZM37.0732 204.78L55.5505 186.973C45.0527 176.209 37.1523 162.906 32.8483 148.07L8.09403 154.218C13.4553 173.495 23.5618 190.798 37.0774 204.784L37.0732 204.78ZM4.60587 154.106C4.45185 153.919 4.3353 153.698 4.27703 153.444C4.21875 153.211 4.21459 152.978 4.25205 152.757C1.75873 143.042 0.435059 132.861 0.435059 122.367C0.435059 88.6968 14.0838 58.215 36.1492 36.1496C58.2145 14.0843 88.6963 0.435547 122.367 0.435547C156.037 0.435547 186.519 14.0843 208.584 36.1496C230.649 58.215 244.298 88.6968 244.298 122.367C244.298 156.037 230.649 186.519 208.584 208.585C186.519 230.65 156.037 244.299 122.367 244.299C88.6963 244.299 58.2145 230.65 36.1492 208.585C21.2766 193.712 10.2335 175.018 4.61003 154.106H4.60587ZM7.24488 151.001L31.9783 144.857C30.151 137.589 29.1812 129.98 29.1812 122.147C29.1812 114.354 30.1427 106.787 31.9492 99.5567L7.5529 92.5346C5.08455 102.067 3.76921 112.061 3.76921 122.367C3.76921 132.241 4.97633 141.831 7.24904 150.997L7.24488 151.001ZM35.4748 145.09C35.5872 145.252 35.6746 145.44 35.7246 145.644C35.7662 145.823 35.7829 145.998 35.7662 146.172C39.9537 161.236 47.9789 174.706 58.7265 185.454C74.9268 201.654 97.3085 211.673 122.029 211.673C146.75 211.673 169.132 201.654 185.333 185.454C201.533 169.253 211.552 146.872 211.552 122.151C211.552 97.4297 201.533 75.048 185.333 58.8477C169.132 42.6473 146.75 32.6282 122.029 32.6282C97.3085 32.6282 74.9268 42.6473 58.7265 58.8477C42.5261 75.048 32.507 97.4297 32.507 122.151C32.507 130.08 33.5393 137.768 35.4748 145.09ZM8.42702 89.3295L32.8108 96.3475C37.1357 81.375 45.1235 67.9552 55.7461 57.1286L38.143 38.8677C24.3735 52.7538 14.0131 70.0281 8.42702 89.3295ZM40.5114 36.5409L58.1104 54.7976C69.0952 44.3664 82.6316 36.595 97.6873 32.52L91.5518 7.81563C72.1172 13.0312 54.6514 23.0586 40.5114 36.5409ZM154.289 126.13C155.704 124.96 157.169 124.007 158.676 123.233C161.71 121.668 164.891 120.831 168.112 120.373C171.638 119.878 175.214 119.845 178.722 119.816C184.687 119.766 190.44 119.716 195.123 117.189C190.269 117.035 186.098 115.129 181.965 113.243C176.408 110.704 170.93 108.206 164.104 110.899C160.603 112.922 157.236 115.428 154.376 119.066C154.472 120.082 154.522 121.11 154.522 122.151C154.522 123.499 154.439 124.827 154.28 126.13H154.289ZM153.693 114.791C158.555 109.622 164.262 106.916 169.727 104.323C175.547 101.567 181.066 98.949 184.637 93.4462C178.964 95.9312 173.457 95.5816 168.067 95.2402C160.882 94.7824 153.927 94.3411 147.4 101.834C150.393 105.567 152.578 109.971 153.698 114.791H153.693ZM145.652 98.8116C147.058 97.3007 148.474 96.1019 149.893 95.1487C151.013 94.1497 152.22 93.159 153.402 92.1891C158.518 87.9892 163.042 84.2721 161.665 77.0668C157.481 82.6904 152.441 83.0483 147.67 83.3896C147.2 83.423 146.734 83.4563 146.28 83.4937C144.565 88.1432 143.87 93.1423 145.652 98.8116ZM147.745 80.0513C152.316 79.7225 157.148 79.2313 160.724 72.28C160.903 71.9303 161.207 71.6431 161.602 71.4933C162.456 71.1644 163.417 71.589 163.75 72.4423C167.555 82.2158 164.104 87.2483 158.901 91.8936C161.989 91.5273 165.111 91.7271 168.275 91.9269C174.585 92.3265 181.07 92.7386 187.501 87.9309L187.505 87.9351C187.934 87.6187 188.504 87.5105 189.045 87.6978C189.911 87.9975 190.369 88.9466 190.065 89.8124C186.735 99.3653 180.063 103.07 172.749 106.571C176.496 107.099 179.909 108.66 183.351 110.229C188.525 112.589 193.77 114.987 200.193 113.289C200.709 113.156 201.279 113.268 201.708 113.647C202.399 114.25 202.465 115.299 201.866 115.99C195.73 122.996 187.443 123.066 178.756 123.137C176.3 123.158 173.815 123.179 171.351 123.37C173.919 127.162 176.758 131.104 184.55 130.73C184.95 130.705 185.357 130.821 185.695 131.092C186.411 131.666 186.523 132.711 185.949 133.427C179.384 141.606 173.303 141.136 166.676 138.955C168.537 141.444 169.927 144.249 171.334 147.092C174.14 152.757 177.024 158.577 184.404 161.74C184.9 161.952 185.278 162.398 185.387 162.964C185.557 163.867 184.962 164.733 184.059 164.904C174.127 166.797 167.58 162.864 160.89 158.281C162.306 161.79 162.664 165.528 163.026 169.299C163.563 174.935 164.112 180.65 168.728 185.35C169.145 185.728 169.361 186.311 169.245 186.902C169.07 187.806 168.196 188.392 167.292 188.218C158.156 186.407 153.952 179.26 149.543 171.772C148.295 169.653 147.034 167.505 145.639 165.47C143.641 169.582 141.656 173.999 145.839 180.542C146.08 180.879 146.193 181.308 146.126 181.749C145.989 182.657 145.144 183.285 144.232 183.148C133.863 181.553 131.224 176.046 129.801 169.216C128.573 172.071 126.841 174.673 125.089 177.312C121.584 182.577 117.988 187.989 118.937 195.964H118.933C118.995 196.493 118.804 197.042 118.371 197.413C117.676 198.012 116.631 197.937 116.027 197.242C109.413 189.579 109.542 181.949 110.166 173.87C107.835 176.846 104.78 179.023 101.7 181.22C97.0671 184.517 92.3718 187.864 90.6319 194.274H90.6277C90.4862 194.79 90.1032 195.227 89.558 195.415C88.688 195.71 87.7431 195.244 87.4517 194.374C84.4548 185.562 88.5382 178.348 92.8172 170.785C94.0243 168.654 95.2522 166.489 96.3137 164.258C91.7433 164.587 86.9106 165.078 83.3351 172.03C83.1561 172.379 82.8522 172.667 82.4568 172.816C81.6035 173.145 80.6419 172.721 80.3089 171.867C76.5044 162.094 79.9551 157.061 85.1582 152.416C82.0697 152.782 78.9478 152.583 75.7843 152.383C69.474 151.983 62.9888 151.571 56.5578 156.379L56.5536 156.375C56.1249 156.691 55.5546 156.799 55.0135 156.612C54.1477 156.312 53.6899 155.363 53.9937 154.497C57.3237 144.944 63.9962 141.24 71.3096 137.739C67.5634 137.211 64.1502 135.65 60.7078 134.08C55.5338 131.72 50.2891 129.323 43.8664 131.021C43.3502 131.154 42.78 131.042 42.3513 130.663C41.6603 130.059 41.5937 129.01 42.1931 128.319C48.3286 121.314 56.6161 121.243 65.3032 121.173C67.759 121.152 70.244 121.131 72.7082 120.939C70.14 117.147 67.3012 113.206 59.509 113.58C59.1094 113.605 58.7015 113.489 58.3643 113.218C57.6484 112.644 57.536 111.599 58.1104 110.883C64.6746 102.704 70.756 103.174 77.3827 105.355C75.5221 102.866 74.1318 100.06 72.7249 97.2174C69.9194 91.5523 67.0348 85.7331 59.6547 82.5696C59.1594 82.3574 58.7806 81.912 58.6723 81.3459C58.5017 80.4426 59.0969 79.5768 60.0002 79.4062C69.9319 77.5122 76.4794 81.4458 83.1685 86.0287C81.7533 82.5197 81.3953 78.7818 81.0332 75.0106C80.4962 69.3746 79.9468 63.6595 75.3306 58.96C74.9144 58.5813 74.6979 57.9985 74.8144 57.4074C74.9893 56.5042 75.8634 55.9173 76.7667 56.0921C85.9033 57.9028 90.1074 65.0498 94.5155 72.5381C95.7601 74.6568 97.0255 76.8046 98.4199 78.8359C100.418 74.7234 102.403 70.307 98.2201 63.7635C97.9787 63.4264 97.8663 62.9977 97.9329 62.5564C98.0702 61.649 98.9152 61.0205 99.8268 61.1578C110.196 62.7521 112.835 68.259 114.258 75.0897C115.486 72.2342 117.218 69.6326 118.97 66.9936C122.475 61.7281 126.071 56.3169 125.122 48.3416H125.126C125.064 47.8129 125.255 47.2635 125.688 46.893C126.383 46.2936 127.428 46.3685 128.032 47.0637C134.646 54.7268 134.517 62.3566 133.893 70.436C136.224 67.4598 139.279 65.2829 142.359 63.0851C146.992 59.7884 151.687 56.4417 153.427 50.0315H153.431C153.573 49.5154 153.956 49.0783 154.501 48.891C155.371 48.5955 156.316 49.0617 156.607 49.9316C159.604 58.7436 155.521 65.9572 151.242 73.5204C150.035 75.6516 148.811 77.8161 147.745 80.0472V80.0513ZM167.625 123.816C165.07 124.244 162.572 124.969 160.199 126.188C158.047 127.3 155.983 128.827 154.051 130.938C156.079 131.404 157.843 132.037 159.388 132.802C160.882 133.298 162.289 133.826 163.667 134.343C169.856 136.674 175.343 138.734 180.891 133.939C173.927 133.127 171.097 128.944 168.42 124.981C168.154 124.586 167.888 124.194 167.625 123.816ZM143.658 161.89C143.699 161.648 143.799 161.415 143.945 161.211C145.381 157.669 145.685 154.006 140.532 148.882C137.443 151.026 133.963 152.645 130.221 153.619C130.962 155.854 131.362 157.902 131.487 159.8C131.799 161.303 132.049 162.826 132.294 164.317C133.372 170.839 134.325 176.617 141.252 179.023C138.475 172.592 140.686 168.05 142.775 163.751C143.079 163.126 143.379 162.506 143.654 161.886L143.658 161.89ZM147.237 162.002C149.165 164.596 150.796 167.368 152.403 170.094C155.425 175.231 158.347 180.192 162.876 182.977C160.587 178.698 160.149 174.132 159.717 169.611C159.134 163.53 158.559 157.536 152.824 152.978C150.626 151.708 148.286 150.58 145.714 149.756C149.231 154.564 148.723 158.331 147.237 161.998V162.002ZM144.232 145.893C151.134 147.517 156.337 151.109 161.315 154.551C166.614 158.21 171.642 161.686 178.198 162.023C173.203 158.352 170.751 153.407 168.354 148.566C165.161 142.122 162.068 135.883 152.316 133.972C150.667 138.193 148.162 141.989 145.011 145.14C144.757 145.394 144.494 145.648 144.232 145.893ZM102.466 148.116C104.093 157.607 99.806 165.178 95.7018 172.429C92.7672 177.616 89.9326 182.619 89.7786 187.935C92.3385 183.814 96.0722 181.154 99.7685 178.523C104.743 174.981 109.646 171.489 110.724 164.242C110.724 160.196 110.237 156.025 108.518 151.725C106.362 150.739 104.335 149.523 102.466 148.112V148.116ZM112.576 153.265C114.624 160.058 114.112 166.352 113.621 172.375C113.101 178.794 112.606 184.888 115.586 190.732C116.269 184.575 119.324 179.984 122.317 175.489C126.304 169.495 130.163 163.692 126.945 154.293C125.343 154.535 123.703 154.664 122.029 154.664C118.741 154.664 115.569 154.177 112.576 153.265ZM97.7747 160.82C99.4896 156.171 100.189 151.172 98.4032 145.502C96.9963 147.013 95.5811 148.216 94.1575 149.169C93.0378 150.168 91.8307 151.159 90.6485 152.129C85.5328 156.329 81.0082 160.046 82.386 167.251C86.5693 161.628 91.6101 161.27 96.3803 160.928C96.8506 160.895 97.3168 160.862 97.7705 160.824L97.7747 160.82ZM76.7875 120.998C76.9956 121.168 77.1663 121.389 77.2745 121.643C79.6221 124.644 82.6399 126.717 89.6329 124.823C89.5621 123.945 89.5247 123.058 89.5247 122.159C89.5247 119.17 89.9284 116.277 90.686 113.526C88.3675 113.047 86.3861 112.361 84.667 111.511C83.1727 111.016 81.7658 110.487 80.388 109.971C74.1984 107.64 68.7122 105.58 63.1637 110.375C70.1275 111.187 72.958 115.37 75.6345 119.333C76.0174 119.899 76.3962 120.457 76.7875 120.994V120.998ZM74.9185 124.07C71.7259 124.44 68.5 124.469 65.3323 124.494C59.3675 124.544 53.6149 124.594 48.9321 127.121C53.7856 127.275 57.9564 129.181 62.0897 131.067C67.6467 133.606 73.1245 136.103 79.951 133.41C82.1487 132.141 84.2966 130.68 86.2987 128.865C80.3672 129.514 77.3577 127.187 74.9227 124.07H74.9185ZM90.3655 129.522C85.5037 134.692 79.7969 137.398 74.3316 139.991C68.5125 142.747 62.993 145.365 59.4216 150.868C65.0951 148.383 70.602 148.732 75.9924 149.074C83.1769 149.531 90.1324 149.973 96.6592 142.48C93.6663 138.747 91.481 134.338 90.3655 129.522ZM96.8215 82.3157C94.8943 79.7267 93.2626 76.9503 91.6559 74.2239C88.6339 69.0874 85.7118 64.1257 81.183 61.341C83.4724 65.62 83.9095 70.1863 84.3424 74.7067C84.9251 80.7881 85.4995 86.7821 91.2354 91.34C93.4332 92.6096 95.7725 93.7376 98.345 94.5618C94.8277 89.7541 95.3355 85.987 96.8215 82.3199V82.3157ZM99.8268 98.4245C92.9254 96.8012 87.7223 93.2089 82.744 89.7666C77.4451 86.1077 72.4169 82.6321 65.8609 82.2949C70.8559 85.9662 73.3076 90.9113 75.7052 95.7522C78.8978 102.196 81.9906 108.435 91.7433 110.346C93.3916 106.125 95.8974 102.329 99.0484 99.1779C99.3023 98.924 99.5646 98.6701 99.8268 98.4245ZM141.593 96.2018C139.966 86.7113 144.253 79.1398 148.357 71.8887C151.292 66.7023 154.126 61.699 154.28 56.3835C151.72 60.5043 147.987 63.1642 144.29 65.7948C139.316 69.3371 134.413 72.8294 133.335 80.0763C133.335 84.1222 133.822 88.2931 135.541 92.5929C137.697 93.5794 139.724 94.7949 141.593 96.2059V96.2018ZM131.482 91.0528C129.435 84.2596 129.947 77.9659 130.438 71.9428C130.958 65.5243 131.453 59.4304 128.477 53.5863C127.795 59.7426 124.739 64.3338 121.746 68.8293C117.759 74.8233 113.9 80.6258 117.118 90.0246C118.72 89.7832 120.36 89.6542 122.029 89.6542C125.318 89.6542 128.49 90.1412 131.482 91.0528ZM113.838 90.699C113.097 88.4637 112.697 86.4158 112.572 84.5177C112.26 83.015 112.01 81.4916 111.765 80.0014C110.687 73.4788 109.734 67.7013 102.807 65.2953C105.584 71.7264 103.373 76.2676 101.284 80.5675C99.1358 84.9839 97.142 89.0881 103.531 95.44C106.62 93.2964 110.1 91.6772 113.842 90.7031L113.838 90.699ZM142.659 101.53C137.381 96.2517 130.088 92.9842 122.029 92.9842C113.975 92.9842 106.682 96.2476 101.4 101.53C98.2784 104.652 95.8641 108.473 94.4114 112.743L94.4031 112.773C93.4041 115.72 92.8588 118.875 92.8588 122.163C92.8588 130.218 96.1222 137.51 101.404 142.792C106.682 148.07 113.975 151.338 122.034 151.338C130.088 151.338 137.381 148.075 142.663 142.792C145.785 139.671 148.199 135.849 149.652 131.579L149.66 131.55C150.659 128.603 151.204 125.447 151.204 122.159C151.204 114.105 147.941 106.812 142.659 101.53Z" fill="white"/>
</g>
</svg>
